<svg xmlns="http://www.w3.org/2000/svg" viewBox="0 0 434.97 186.13"><defs><style>.cls-1{fill:#5b4f27;}.cls-2{fill:#b5d56d;}.cls-3{fill:#7ca272;}.cls-4{fill:#849d7d;}</style></defs><g id="Layer_2" data-name="Layer 2"><g id="Layer_1-2" data-name="Layer 1"><rect class="cls-1" x="198.24" y="160.84" width="21.12" height="25.28"/><polygon class="cls-2" points="208.14 0 157.97 161.82 260.95 161.82 208.14 0"/><polygon class="cls-3" points="208.12 0.06 157.88 161.64 208.12 161.64 208.12 0.06"/><path class="cls-3" d="M158.66,175.08c0-5.64-3.32-10.27-7.57-10.84a20.08,20.08,0,0,0,.17-2.47c0-8.4-5.23-15.22-11.67-15.22a10,10,0,0,0-7.15,3.2c-2.26-5.12-6.49-8.57-11.34-8.57-5,0-9.39,3.7-11.59,9.12a10.25,10.25,0,0,0-9.82.34c-2.2-5.42-6.56-9.11-11.58-9.11-5.52,0-10.23,4.46-12.16,10.76a8.91,8.91,0,0,0-3.81-.88c-3.83,0-7.21,2.51-9.23,6.33-1.34-2.94-3.8-4.93-6.62-4.93-3.21,0-6,2.58-7.11,6.22-1.93-4.51-5.63-7.57-9.88-7.57-6.25,0-11.31,6.61-11.31,14.76,0,.22,0,.44,0,.66-3.56.71-6.29,4.71-6.29,9.56,0,5.35,3.32,9.69,7.42,9.69a5.12,5.12,0,0,0,.78-.06h121v-.13C155.24,185.49,158.66,180.8,158.66,175.08Z"/><rect class="cls-1" x="57.43" y="169.48" width="13.32" height="16.65"/><polygon class="cls-2" points="63.67 63.58 32.04 170.12 96.97 170.12 63.67 63.58"/><polygon class="cls-3" points="63.66 63.62 31.99 170.01 63.66 170.01 63.66 63.62"/><rect class="cls-1" x="17.48" y="174.69" width="9.15" height="11.44"/><polygon class="cls-2" points="21.77 101.92 0.04 175.13 44.65 175.13 21.77 101.92"/><polygon class="cls-3" points="21.76 101.95 0 175.05 21.76 175.05 21.76 101.95"/><path class="cls-4" d="M435,171.69c0-7.37-5-13.43-11.49-14.17a21.3,21.3,0,0,0,.26-3.22c0-11-7.93-19.9-17.71-19.9a16.43,16.43,0,0,0-10.85,4.19c-3.43-6.7-9.85-11.21-17.22-11.21-7.63,0-14.25,4.84-17.59,11.93a17.68,17.68,0,0,0-6.95-1.44,18,18,0,0,0-7.95,1.87c-3.34-7.07-10-11.9-17.58-11.9-8.37,0-15.53,5.83-18.45,14.07a15.22,15.22,0,0,0-5.79-1.16,16.56,16.56,0,0,0-14,8.28,11.48,11.48,0,0,0-10-6.44c-4.88,0-9.05,3.36-10.8,8.13-2.93-5.91-8.54-9.9-15-9.9-9.48,0-17.17,8.63-17.17,19.29,0,.29,0,.57,0,.86-5.41.93-9.56,6.16-9.56,12.5,0,7,5.05,12.66,11.27,12.66a11.14,11.14,0,0,0,1.17-.07H423.19v-.18C429.78,185.29,435,179.17,435,171.69Z"/></g></g></svg>